<svg width="332" height="101" viewBox="0 0 332 101" fill="none" xmlns="http://www.w3.org/2000/svg">
<path d="M147.515 94.8363C183.564 94.1879 223.599 91.8535 262.941 84.8506C275.246 82.646 287.205 80.0523 298.47 75.7727C303.496 73.8274 308.522 71.6228 313.029 69.0291C316.322 67.0838 319.095 64.4902 321.174 61.7668C326.2 55.2826 324.814 48.6687 317.188 43.8703C312.682 41.0173 307.656 38.683 302.283 36.7377C287.032 31.0316 270.74 27.2707 254.276 24.288C240.584 21.824 226.546 20.7865 212.507 20.1381C210.774 20.0084 209.041 20.1381 207.654 19.6194C206.441 19.2303 205.055 18.0632 205.055 17.2851C205.228 16.2476 206.615 15.2101 207.828 14.6914C209.041 14.1726 210.774 14.432 212.161 14.432C235.038 14.3023 257.049 17.6741 278.366 23.2505C288.765 25.9739 298.99 29.216 309.042 32.7175C314.242 34.5331 319.268 37.2564 323.427 40.2392C332.44 46.5937 334.346 55.0232 329.147 63.4527C326.547 67.862 322.388 71.3634 317.535 74.3462C308.696 79.6632 298.644 83.035 288.245 85.7584C267.967 91.0754 246.996 94.1879 225.679 96.3925C200.375 99.1159 175.072 100.542 149.421 100.931C118.918 101.321 88.4153 100.153 58.6055 94.8363C46.6469 92.7613 35.2083 89.6489 24.6362 84.9803C17.7037 81.8679 11.4644 78.3664 6.61165 73.4384C-1.18743 65.5276 -2.05399 57.2278 3.83864 48.4093C7.13158 43.4813 11.811 39.4611 17.1837 35.8299C31.3954 26.2333 48.0334 19.7491 65.7113 14.5617C88.7619 7.8181 112.852 4.18694 137.289 1.9823C168.659 -0.870752 200.029 -0.481699 231.398 2.11199C258.435 4.31662 285.125 8.07747 310.776 15.3398C314.068 16.2476 317.188 17.4147 320.308 18.5819C322.561 19.36 323.947 20.5272 323.081 22.4724C322.388 23.899 320.134 24.4177 317.361 23.3802C301.243 17.9335 284.085 15.2101 266.927 12.4867C246.823 9.37431 226.372 7.68841 205.921 6.65094C169.526 4.96504 133.477 7.03999 98.1208 13.5242C79.0564 16.7663 60.6852 21.824 43.5273 29.216C34.6883 32.9769 26.3693 37.3861 19.2635 42.9626C16.6638 45.0375 14.2374 47.3718 12.1577 49.8358C5.91839 57.4872 6.95827 65.1386 15.2773 71.4931C19.4368 74.7352 24.4629 77.4586 29.6622 79.9226C41.1009 85.2397 53.926 87.963 67.0978 89.9083C92.0548 93.6691 117.532 94.966 147.515 94.8363Z" fill="#ffffff"/>
</svg>
