<svg width="253" height="70" viewBox="0 0 253 70" fill="fff" xmlns="http://www.w3.org/2000/svg">
<path d="M251.347 29.2252C239.608 27.4457 227.888 25.5517 216.135 23.9452C209.62 23.0555 203.062 22.7134 196.531 22.0254C190.755 21.4113 184.99 20.6386 179.221 19.938C177.778 19.7664 176.347 19.5668 174.896 19.4961C165.02 19.0669 155.158 18.3486 145.265 18.3676C138.139 18.3723 130.969 19.4032 123.822 19.9137C119.65 20.2089 115.477 20.272 111.304 20.6976C108.285 21.011 105.259 21.7445 102.236 22.3331C100.47 22.6726 98.7062 23.2009 96.9415 23.3955C93.6068 23.7566 90.2767 23.944 86.9408 24.2035C86.3787 24.2462 85.8269 24.1593 85.2706 24.246C82.4297 24.733 79.5899 25.2055 76.7525 25.7653C74.2222 26.2622 71.6988 26.9046 69.1674 27.4159C65.9295 28.0601 62.6824 28.5877 59.4365 29.2168C57.1395 29.6595 54.8367 30.0583 52.5614 30.6913C48.5999 31.8006 44.6134 32.7629 40.7067 34.3405C28.031 39.4623 15.3963 44.8773 2.72167 49.9846C1.96513 50.2876 0.351485 49.1455 0.2739 48.2694C0.108495 46.5308 0.452684 44.2522 1.11222 42.738C1.58185 41.6584 2.90382 41.2694 3.87879 40.8676C11.5705 37.7463 19.2564 34.4649 26.9834 31.7089C35.3419 28.727 43.7277 25.8633 52.1432 23.669C59.4279 21.7627 66.7685 20.8903 74.084 19.523C81.2232 18.1852 88.3656 16.4562 95.5083 15.5392C103.383 14.5204 111.261 14.1399 119.137 13.6867C123.672 13.4345 128.227 14.3296 132.725 13.3786C138.49 12.1647 144.022 12.861 149.653 13.4637C153.985 13.9351 158.474 12.4034 162.847 12.5736C168.911 12.8042 174.924 13.785 180.959 14.4919C185.606 15.0317 190.24 15.6139 194.883 16.1968C198.611 16.6642 202.35 16.9875 206.053 17.6415C211.582 18.6131 217.101 19.7 222.602 20.9159C227.58 22.0183 232.507 23.5371 237.489 24.5818C240.986 25.3065 244.555 25.4569 248.071 26.0526C249.309 26.2661 250.475 27.0393 251.68 27.5547C251.572 28.1117 251.455 28.6681 251.347 29.2252Z" fill="#fff"/>
<path d="M219.764 24.5819C220.467 25.9088 220.942 26.7985 221.543 27.9294C223.523 25.2477 225.37 22.4154 227.456 27.5448C227.894 28.631 230.963 26.6553 232.669 26.1503C234.121 26.7946 235.676 27.9976 237.299 28.0973C241.793 28.3677 246.318 28.1544 250.834 28.1375C250.818 28.9082 250.801 29.6939 250.784 30.4645C248.767 30.7289 246.754 31.1292 244.735 31.2274C224.798 32.2082 204.864 32.7207 184.914 34.2154C163.958 35.7742 142.984 38.1187 122.014 40.4029C110.572 41.6542 99.1204 43.51 87.6772 44.9881C86.5949 45.1281 85.3593 44.9967 84.485 44.1991C83.6985 43.4919 82.8042 41.7124 82.863 40.4128C82.915 39.2643 84.2011 37.2651 84.9806 37.1111C93.4163 35.4328 101.856 33.6638 110.297 32.6956C119.069 31.6959 127.83 31.5726 136.602 31.0111C144.736 30.4972 152.879 30.0136 161.013 29.3034C167.633 28.7348 174.261 27.5768 180.872 27.2047C183.435 27.0591 185.926 28.7119 188.503 28.8836C189.768 28.9695 191.945 31.4544 192.439 26.4364C192.457 26.2399 193.128 25.8445 193.313 26.0251C195.581 28.147 198.228 24.919 200.315 26.1502C202.635 27.5315 204.667 26.9196 206.946 25.9593C207.696 25.6392 208.576 26.9201 209.413 26.917C210.425 26.9132 211.453 26.1388 212.48 25.999C213.35 25.8749 214.483 25.6289 215.029 26.3673C216.817 28.7327 218.207 28.093 219.745 24.5819L219.764 24.5819Z" fill="#fff"/>
</svg>
