<svg width="1919" height="240" viewBox="0 0 1919 240" fill="none" xmlns="http://www.w3.org/2000/svg">
<path d="M-2.60217e-07 80.2727L63.9667 59.009C127.933 37.3459 255.867 -4.58248 383.8 0.408995C511.733 5.40047 639.667 59.3084 767.6 85.5636C895.533 112.218 1023.47 112.218 1151.4 90.9544C1279.33 69.2914 1407.27 27.363 1535.2 32.3545C1663.13 37.3459 1791.07 91.2539 1855.03 117.509L1919 144.164L1919 240L1855.03 240C1791.07 240 1663.13 240 1535.2 240C1407.27 240 1279.33 240 1151.4 240C1023.47 240 895.533 240 767.6 240C639.667 240 511.733 240 383.8 240C255.867 240 127.933 240 63.9667 240L-7.78e-07 240L-2.60217e-07 80.2727Z" fill="#082123"/>
</svg>
