<svg width="1920" height="217" viewBox="0 0 1920 217" fill="none" xmlns="http://www.w3.org/2000/svg">
<path d="M0 72.2551L64 53.1152C128 33.6158 256 -4.12479 384 0.368143C512 4.86108 640 53.3848 768 77.0176C896 101.01 1024 101.01 1152 81.87C1280 62.3706 1408 24.63 1536 29.1229C1664 33.6159 1792 82.1395 1856 105.772L1920 129.765V216.029H1856C1792 216.029 1664 216.029 1536 216.029C1408 216.029 1280 216.029 1152 216.029C1024 216.029 896 216.029 768 216.029C640 216.029 512 216.029 384 216.029C256 216.029 128 216.029 64 216.029H0V72.2551Z" fill="white"/>
</svg>
